<svg width="24" height="24" viewBox="0 0 24 24" fill="none" xmlns="http://www.w3.org/2000/svg">
  <path fill-rule="evenodd" clip-rule="evenodd" d="M18.2929 15.2929L17 16.5858L17 10C17 9.44772 16.5523 9 16 9C15.4477 9 15 9.44772 15 10L15 16.5858L13.7071 15.2929C13.3166 14.9024 12.6834 14.9024 12.2929 15.2929C11.9024 15.6834 11.9024 16.3166 12.2929 16.7071L15.2929 19.7071C15.6834 20.0976 16.3166 20.0976 16.7071 19.7071L19.7071 16.7071C20.0976 16.3166 20.0976 15.6834 19.7071 15.2929C19.3166 14.9024 18.6834 14.9024 18.2929 15.2929ZM5.70716 8.7071L7.00006 7.4142L7.00003 14C7.00002 14.5523 7.44774 15 8.00002 15C8.55231 15 9.00002 14.5523 9.00003 14L9.00006 7.41418L10.2929 8.70707C10.6835 9.09759 11.3166 9.09758 11.7072 8.70706C12.0977 8.31653 12.0977 7.68336 11.7072 7.29284L8.70718 4.29286C8.31665 3.90234 7.68349 3.90235 7.29296 4.29287L4.29295 7.29289C3.90242 7.68342 3.90242 8.31658 4.29294 8.70711C4.68347 9.09763 5.31663 9.09762 5.70716 8.7071Z" fill="#1D1D30"/>
</svg>
