<svg width="24" height="24" viewBox="0 0 24 24" fill="none" xmlns="http://www.w3.org/2000/svg">
  <path fill-rule="evenodd" clip-rule="evenodd" d="M17.4398 6.10164C17.5073 6.1342 17.5689 6.17284 17.6256 6.21814L17.7071 6.29116L19.7071 8.29116L19.7903 8.38537C20.0953 8.77766 20.0676 9.34489 19.7071 9.70537C19.3466 10.0659 18.7794 10.0936 18.3871 9.78856L18.2929 9.70537L18 9.413V17C18 17.5523 17.5523 18 17 18C16.4477 18 16 17.5523 16 17V9.412L15.7071 9.70537L15.6129 9.78856C15.2206 10.0936 14.6534 10.0659 14.2929 9.70537C13.9324 9.34489 13.9047 8.77766 14.2097 8.38537L14.2929 8.29116L16.2929 6.29116L16.3871 6.20797C16.4395 6.16725 16.495 6.13247 16.5526 6.10361L16.6566 6.05882L16.6657 6.05725C16.7246 6.03518 16.7857 6.01954 16.8476 6.00994L16.941 6H17.059L17.1764 6.01386C17.2302 6.02346 17.2834 6.03748 17.3353 6.05592L17.3737 6.07066L17.4398 6.10164ZM11 16C11.5523 16 12 16.4477 12 17C12 17.5523 11.5523 18 11 18H5C4.44772 18 4 17.5523 4 17C4 16.4477 4.44772 16 5 16H11ZM9 11C9.55228 11 10 11.4477 10 12C10 12.5523 9.55228 13 9 13H5C4.44772 13 4 12.5523 4 12C4 11.4477 4.44772 11 5 11H9ZM7 6C7.55228 6 8 6.44772 8 7C8 7.55228 7.55228 8 7 8H5C4.44772 8 4 7.55228 4 7C4 6.44772 4.44772 6 5 6H7Z" fill="black"/>
</svg>
