<svg width="24" height="24" viewBox="0 0 24 24" fill="none" xmlns="http://www.w3.org/2000/svg">
  <path fill-rule="evenodd" clip-rule="evenodd" d="M17 6C17.5523 6 18 6.44772 18 7V14.584L18.2929 14.2929C18.6834 13.9024 19.3166 13.9024 19.7071 14.2929C20.0676 14.6534 20.0953 15.2206 19.7903 15.6129L19.7071 15.7071L17.7071 17.7071C17.6717 17.7425 17.6343 17.7747 17.5953 17.8037L17.4841 17.8753L17.3713 17.9288L17.2293 17.9736L17.1149 17.9935L17 18L16.8834 17.9933L16.7707 17.9736L16.6584 17.9401L16.5768 17.9063L16.4793 17.854L16.3871 17.7903C16.3503 17.7612 16.3208 17.735 16.2929 17.7071L14.2929 15.7071C13.9024 15.3166 13.9024 14.6834 14.2929 14.2929C14.6534 13.9324 15.2206 13.9047 15.6129 14.2097L15.7071 14.2929L16 14.585V7C16 6.44772 16.4477 6 17 6ZM11 16C11.5523 16 12 16.4477 12 17C12 17.5523 11.5523 18 11 18H5C4.44772 18 4 17.5523 4 17C4 16.4477 4.44772 16 5 16H11ZM9 11C9.55228 11 10 11.4477 10 12C10 12.5523 9.55228 13 9 13H5C4.44772 13 4 12.5523 4 12C4 11.4477 4.44772 11 5 11H9ZM7 6C7.55228 6 8 6.44772 8 7C8 7.55228 7.55228 8 7 8H5C4.44772 8 4 7.55228 4 7C4 6.44772 4.44772 6 5 6H7Z" fill="black"/>
</svg>
